# xmcd
#
# Track frame offsets:
#	150
#	1452
#	16772
#	40790
#	63008
#	79936
#	97441
#	116815
#	147058
#	170300
#	186427
#	207745
#	232876
#
# Disc length: 3369 seconds
#
# Revision: 0
# Processed by: cddbd v1.5.2PL0 Copyright (c) Steve Scherf et al.
# Submitted via: EasyCDDAExtractor 10.0.1.1
#
DISCID=ad0d270d
DTITLE=Breakin The Bondage Blues Band - A Place Called Calvary
DYEAR=2006
DGENRE=Blues
TTITLE0=He Came To Love Me
TTITLE1=Born In The End Times
TTITLE2=Stay Close To You
TTITLE3=To The Cross
TTITLE4=A Place Called Calvary
TTITLE5=Just Three Days
TTITLE6=The Empy Tomb
TTITLE7=Messin' With God's Kid
TTITLE8=How'd He Do Ya Like That
TTITLE9=Dump That Chump
TTITLE10=It Hurts Jesus Too
TTITLE11=Our Hevenly Home
TTITLE12=Bonus
EXTD=
EXTT0=
EXTT1=
EXTT2=
EXTT3=
EXTT4=
EXTT5=
EXTT6=
EXTT7=
EXTT8=
EXTT9=
EXTT10=
EXTT11=
EXTT12=
PLAYORDER=
